<?xml version="1.0" encoding="UTF-8" standalone="no"?>
<!-- Created with Inkscape (http://www.inkscape.org/) -->

<svg
   xmlns:dc="http://purl.org/dc/elements/1.1/"
   xmlns:cc="http://creativecommons.org/ns#"
   xmlns:rdf="http://www.w3.org/1999/02/22-rdf-syntax-ns#"
   xmlns:svg="http://www.w3.org/2000/svg"
   xmlns="http://www.w3.org/2000/svg"
   xmlns:sodipodi="http://sodipodi.sourceforge.net/DTD/sodipodi-0.dtd"
   xmlns:inkscape="http://www.inkscape.org/namespaces/inkscape"
   width="700"
   height="455"
   id="svg2812"
   sodipodi:version="0.32"
   inkscape:version="0.47 r22583"
   sodipodi:docname="Bayer_pattern_on_sensor.svg"
   version="1.0">
  <defs
     id="defs2814">
    <inkscape:perspective
       sodipodi:type="inkscape:persp3d"
       inkscape:vp_x="0 : 227.5 : 1"
       inkscape:vp_y="0 : 1000 : 0"
       inkscape:vp_z="700 : 227.5 : 1"
       inkscape:persp3d-origin="350 : 151.66667 : 1"
       id="perspective102" />
    <inkscape:perspective
       id="perspective2916"
       inkscape:persp3d-origin="0.5 : 0.33333333 : 1"
       inkscape:vp_z="1 : 0.5 : 1"
       inkscape:vp_y="0 : 1000 : 0"
       inkscape:vp_x="0 : 0.5 : 1"
       sodipodi:type="inkscape:persp3d" />
    <inkscape:perspective
       id="perspective2938"
       inkscape:persp3d-origin="0.5 : 0.33333333 : 1"
       inkscape:vp_z="1 : 0.5 : 1"
       inkscape:vp_y="0 : 1000 : 0"
       inkscape:vp_x="0 : 0.5 : 1"
       sodipodi:type="inkscape:persp3d" />
    <inkscape:perspective
       id="perspective2960"
       inkscape:persp3d-origin="0.5 : 0.33333333 : 1"
       inkscape:vp_z="1 : 0.5 : 1"
       inkscape:vp_y="0 : 1000 : 0"
       inkscape:vp_x="0 : 0.5 : 1"
       sodipodi:type="inkscape:persp3d" />
    <inkscape:perspective
       id="perspective2982"
       inkscape:persp3d-origin="0.5 : 0.33333333 : 1"
       inkscape:vp_z="1 : 0.5 : 1"
       inkscape:vp_y="0 : 1000 : 0"
       inkscape:vp_x="0 : 0.5 : 1"
       sodipodi:type="inkscape:persp3d" />
    <inkscape:perspective
       id="perspective3004"
       inkscape:persp3d-origin="0.5 : 0.33333333 : 1"
       inkscape:vp_z="1 : 0.5 : 1"
       inkscape:vp_y="0 : 1000 : 0"
       inkscape:vp_x="0 : 0.5 : 1"
       sodipodi:type="inkscape:persp3d" />
    <inkscape:perspective
       id="perspective3026"
       inkscape:persp3d-origin="0.5 : 0.33333333 : 1"
       inkscape:vp_z="1 : 0.5 : 1"
       inkscape:vp_y="0 : 1000 : 0"
       inkscape:vp_x="0 : 0.5 : 1"
       sodipodi:type="inkscape:persp3d" />
    <inkscape:perspective
       id="perspective3048"
       inkscape:persp3d-origin="0.5 : 0.33333333 : 1"
       inkscape:vp_z="1 : 0.5 : 1"
       inkscape:vp_y="0 : 1000 : 0"
       inkscape:vp_x="0 : 0.5 : 1"
       sodipodi:type="inkscape:persp3d" />
    <inkscape:perspective
       id="perspective3070"
       inkscape:persp3d-origin="0.5 : 0.33333333 : 1"
       inkscape:vp_z="1 : 0.5 : 1"
       inkscape:vp_y="0 : 1000 : 0"
       inkscape:vp_x="0 : 0.5 : 1"
       sodipodi:type="inkscape:persp3d" />
    <inkscape:perspective
       id="perspective3092"
       inkscape:persp3d-origin="0.5 : 0.33333333 : 1"
       inkscape:vp_z="1 : 0.5 : 1"
       inkscape:vp_y="0 : 1000 : 0"
       inkscape:vp_x="0 : 0.5 : 1"
       sodipodi:type="inkscape:persp3d" />
    <inkscape:perspective
       id="perspective3265"
       inkscape:persp3d-origin="0.5 : 0.33333333 : 1"
       inkscape:vp_z="1 : 0.5 : 1"
       inkscape:vp_y="0 : 1000 : 0"
       inkscape:vp_x="0 : 0.5 : 1"
       sodipodi:type="inkscape:persp3d" />
    <inkscape:perspective
       id="perspective3287"
       inkscape:persp3d-origin="0.5 : 0.33333333 : 1"
       inkscape:vp_z="1 : 0.5 : 1"
       inkscape:vp_y="0 : 1000 : 0"
       inkscape:vp_x="0 : 0.5 : 1"
       sodipodi:type="inkscape:persp3d" />
    <inkscape:perspective
       id="perspective3309"
       inkscape:persp3d-origin="0.5 : 0.33333333 : 1"
       inkscape:vp_z="1 : 0.5 : 1"
       inkscape:vp_y="0 : 1000 : 0"
       inkscape:vp_x="0 : 0.5 : 1"
       sodipodi:type="inkscape:persp3d" />
    <inkscape:perspective
       id="perspective3331"
       inkscape:persp3d-origin="0.5 : 0.33333333 : 1"
       inkscape:vp_z="1 : 0.5 : 1"
       inkscape:vp_y="0 : 1000 : 0"
       inkscape:vp_x="0 : 0.5 : 1"
       sodipodi:type="inkscape:persp3d" />
    <inkscape:perspective
       id="perspective3353"
       inkscape:persp3d-origin="0.5 : 0.33333333 : 1"
       inkscape:vp_z="1 : 0.5 : 1"
       inkscape:vp_y="0 : 1000 : 0"
       inkscape:vp_x="0 : 0.5 : 1"
       sodipodi:type="inkscape:persp3d" />
    <inkscape:perspective
       id="perspective3375"
       inkscape:persp3d-origin="0.5 : 0.33333333 : 1"
       inkscape:vp_z="1 : 0.5 : 1"
       inkscape:vp_y="0 : 1000 : 0"
       inkscape:vp_x="0 : 0.5 : 1"
       sodipodi:type="inkscape:persp3d" />
    <inkscape:perspective
       id="perspective3397"
       inkscape:persp3d-origin="0.5 : 0.33333333 : 1"
       inkscape:vp_z="1 : 0.5 : 1"
       inkscape:vp_y="0 : 1000 : 0"
       inkscape:vp_x="0 : 0.5 : 1"
       sodipodi:type="inkscape:persp3d" />
    <inkscape:perspective
       id="perspective3419"
       inkscape:persp3d-origin="0.5 : 0.33333333 : 1"
       inkscape:vp_z="1 : 0.5 : 1"
       inkscape:vp_y="0 : 1000 : 0"
       inkscape:vp_x="0 : 0.5 : 1"
       sodipodi:type="inkscape:persp3d" />
    <inkscape:perspective
       id="perspective3441"
       inkscape:persp3d-origin="0.5 : 0.33333333 : 1"
       inkscape:vp_z="1 : 0.5 : 1"
       inkscape:vp_y="0 : 1000 : 0"
       inkscape:vp_x="0 : 0.5 : 1"
       sodipodi:type="inkscape:persp3d" />
    <inkscape:perspective
       id="perspective3463"
       inkscape:persp3d-origin="0.5 : 0.33333333 : 1"
       inkscape:vp_z="1 : 0.5 : 1"
       inkscape:vp_y="0 : 1000 : 0"
       inkscape:vp_x="0 : 0.5 : 1"
       sodipodi:type="inkscape:persp3d" />
    <inkscape:perspective
       id="perspective3485"
       inkscape:persp3d-origin="0.5 : 0.33333333 : 1"
       inkscape:vp_z="1 : 0.5 : 1"
       inkscape:vp_y="0 : 1000 : 0"
       inkscape:vp_x="0 : 0.5 : 1"
       sodipodi:type="inkscape:persp3d" />
    <inkscape:perspective
       id="perspective3507"
       inkscape:persp3d-origin="0.5 : 0.33333333 : 1"
       inkscape:vp_z="1 : 0.5 : 1"
       inkscape:vp_y="0 : 1000 : 0"
       inkscape:vp_x="0 : 0.5 : 1"
       sodipodi:type="inkscape:persp3d" />
    <inkscape:perspective
       id="perspective3529"
       inkscape:persp3d-origin="0.5 : 0.33333333 : 1"
       inkscape:vp_z="1 : 0.5 : 1"
       inkscape:vp_y="0 : 1000 : 0"
       inkscape:vp_x="0 : 0.5 : 1"
       sodipodi:type="inkscape:persp3d" />
    <inkscape:perspective
       id="perspective3551"
       inkscape:persp3d-origin="0.5 : 0.33333333 : 1"
       inkscape:vp_z="1 : 0.5 : 1"
       inkscape:vp_y="0 : 1000 : 0"
       inkscape:vp_x="0 : 0.5 : 1"
       sodipodi:type="inkscape:persp3d" />
    <inkscape:perspective
       id="perspective3573"
       inkscape:persp3d-origin="0.5 : 0.33333333 : 1"
       inkscape:vp_z="1 : 0.5 : 1"
       inkscape:vp_y="0 : 1000 : 0"
       inkscape:vp_x="0 : 0.5 : 1"
       sodipodi:type="inkscape:persp3d" />
    <inkscape:perspective
       id="perspective3595"
       inkscape:persp3d-origin="0.5 : 0.33333333 : 1"
       inkscape:vp_z="1 : 0.5 : 1"
       inkscape:vp_y="0 : 1000 : 0"
       inkscape:vp_x="0 : 0.5 : 1"
       sodipodi:type="inkscape:persp3d" />
    <inkscape:perspective
       id="perspective3617"
       inkscape:persp3d-origin="0.5 : 0.33333333 : 1"
       inkscape:vp_z="1 : 0.5 : 1"
       inkscape:vp_y="0 : 1000 : 0"
       inkscape:vp_x="0 : 0.5 : 1"
       sodipodi:type="inkscape:persp3d" />
    <inkscape:perspective
       id="perspective3639"
       inkscape:persp3d-origin="0.5 : 0.33333333 : 1"
       inkscape:vp_z="1 : 0.5 : 1"
       inkscape:vp_y="0 : 1000 : 0"
       inkscape:vp_x="0 : 0.5 : 1"
       sodipodi:type="inkscape:persp3d" />
    <inkscape:perspective
       id="perspective3661"
       inkscape:persp3d-origin="0.5 : 0.33333333 : 1"
       inkscape:vp_z="1 : 0.5 : 1"
       inkscape:vp_y="0 : 1000 : 0"
       inkscape:vp_x="0 : 0.5 : 1"
       sodipodi:type="inkscape:persp3d" />
    <inkscape:perspective
       id="perspective3683"
       inkscape:persp3d-origin="0.5 : 0.33333333 : 1"
       inkscape:vp_z="1 : 0.5 : 1"
       inkscape:vp_y="0 : 1000 : 0"
       inkscape:vp_x="0 : 0.5 : 1"
       sodipodi:type="inkscape:persp3d" />
    <inkscape:perspective
       id="perspective3705"
       inkscape:persp3d-origin="0.5 : 0.33333333 : 1"
       inkscape:vp_z="1 : 0.5 : 1"
       inkscape:vp_y="0 : 1000 : 0"
       inkscape:vp_x="0 : 0.5 : 1"
       sodipodi:type="inkscape:persp3d" />
    <inkscape:perspective
       id="perspective3727"
       inkscape:persp3d-origin="0.5 : 0.33333333 : 1"
       inkscape:vp_z="1 : 0.5 : 1"
       inkscape:vp_y="0 : 1000 : 0"
       inkscape:vp_x="0 : 0.5 : 1"
       sodipodi:type="inkscape:persp3d" />
  </defs>
  <sodipodi:namedview
     id="base"
     pagecolor="#ffffff"
     bordercolor="#666666"
     borderopacity="1.0"
     gridtolerance="10000"
     guidetolerance="10"
     objecttolerance="10"
     inkscape:pageopacity="0.0"
     inkscape:pageshadow="2"
     inkscape:zoom="0.7"
     inkscape:cx="310.82276"
     inkscape:cy="257.75089"
     inkscape:document-units="px"
     inkscape:current-layer="layer2"
     showgrid="true"
     inkscape:grid-points="true"
     inkscape:window-width="1280"
     inkscape:window-height="1002"
     inkscape:window-x="1272"
     inkscape:window-y="-8"
     width="700px"
     height="455px"
     inkscape:snap-grids="false"
     inkscape:window-maximized="0">
    <inkscape:grid
       id="GridFromPre046Settings"
       type="xygrid"
       originx="0px"
       originy="0px"
       spacingx="8.66px"
       spacingy="5px"
       color="#0000ff"
       empcolor="#0000ff"
       opacity="0.2"
       empopacity="0.4"
       empspacing="5" />
  </sodipodi:namedview>
  <metadata
     id="metadata2817">
    <rdf:RDF>
      <cc:Work
         rdf:about="">
        <dc:format>image/svg+xml</dc:format>
        <dc:type
           rdf:resource="http://purl.org/dc/dcmitype/StillImage" />
      </cc:Work>
    </rdf:RDF>
  </metadata>
  <g
     inkscape:groupmode="layer"
     id="layer2"
     inkscape:label="Color"
     style="opacity:1;display:inline"
     transform="translate(0.5,-1.862185)">
    <path
       style="fill:blue;fill-opacity:1;fill-rule:evenodd;stroke:black;stroke-width:1px;stroke-linecap:butt;stroke-linejoin:miter;stroke-opacity:1"
       d="M 0,202.36218 L 43.3,177.36218 L 86.6,202.36218 L 43.3,227.36218 L 0,202.36218 z "
       id="path2911" />
    <path
       style="fill:blue;fill-opacity:1;fill-rule:evenodd;stroke:black;stroke-width:1px;stroke-linecap:butt;stroke-linejoin:miter;stroke-opacity:1"
       d="M 0,202.36218 L 0,227.36218 L 43.3,252.36218 L 43.3,227.36218 L 0,202.36218 z "
       id="path2913" />
    <path
       style="fill:lime;fill-opacity:1;fill-rule:evenodd;stroke:black;stroke-width:1px;stroke-linecap:butt;stroke-linejoin:miter;stroke-opacity:1"
       d="M 43.3,227.36218 L 86.6,252.36218 L 86.6,277.36218 L 43.3,252.36218 L 43.3,227.36218 z "
       id="path2915" />
    <path
       style="fill:lime;fill-opacity:1;fill-rule:evenodd;stroke:black;stroke-width:1px;stroke-linecap:butt;stroke-linejoin:miter;stroke-opacity:1"
       d="M 43.3,227.36218 L 86.6,202.36218 L 129.9,227.36218 L 86.6,252.36218 L 43.3,227.36218 z "
       id="path2917" />
    <path
       style="opacity:1;fill:lime;fill-opacity:1;fill-rule:evenodd;stroke:black;stroke-width:1px;stroke-linecap:butt;stroke-linejoin:miter;stroke-opacity:1;display:inline"
       d="M 43.3,177.36218 L 86.6,152.36218 L 129.9,177.36218 L 86.6,202.36218 L 43.3,177.36218 z "
       id="path2919" />
    <path
       style="opacity:1;fill:red;fill-opacity:1;fill-rule:evenodd;stroke:black;stroke-width:1px;stroke-linecap:butt;stroke-linejoin:miter;stroke-opacity:1;display:inline"
       d="M 86.6,202.36218 L 129.9,177.36218 L 173.2,202.36218 L 129.9,227.36218 L 86.6,202.36218 z "
       id="path2921" />
    <path
       style="opacity:1;fill:blue;fill-opacity:1;fill-rule:evenodd;stroke:black;stroke-width:1px;stroke-linecap:butt;stroke-linejoin:miter;stroke-opacity:1;display:inline"
       d="M 86.6,252.36218 L 129.9,227.36218 L 173.2,252.36218 L 129.9,277.36218 L 86.6,252.36218 z "
       id="path2923" />
    <path
       style="opacity:1;fill:blue;fill-opacity:1;fill-rule:evenodd;stroke:black;stroke-width:1px;stroke-linecap:butt;stroke-linejoin:miter;stroke-opacity:1;display:inline"
       d="M 86.6,252.36218 L 86.6,277.36218 L 129.9,302.36218 L 129.9,277.36218 L 86.6,252.36218 z "
       id="path2925" />
    <path
       style="opacity:1;fill:lime;fill-opacity:1;fill-rule:evenodd;stroke:black;stroke-width:1px;stroke-linecap:butt;stroke-linejoin:miter;stroke-opacity:1;display:inline"
       d="M 129.9,227.36218 L 173.2,202.36218 L 216.5,227.36218 L 173.2,252.36218 L 129.9,227.36218 z "
       id="path2927" />
    <path
       style="opacity:1;fill:lime;fill-opacity:1;fill-rule:evenodd;stroke:black;stroke-width:1px;stroke-linecap:butt;stroke-linejoin:miter;stroke-opacity:1;display:inline"
       d="M 129.9,277.36218 L 173.2,302.36218 L 173.2,327.36218 L 129.9,302.36218 L 129.9,277.36218 z "
       id="path2929" />
    <path
       style="opacity:1;fill:lime;fill-opacity:1;fill-rule:evenodd;stroke:black;stroke-width:1px;stroke-linecap:butt;stroke-linejoin:miter;stroke-opacity:1;display:inline"
       d="M 129.9,277.36218 L 173.2,252.36218 L 216.5,277.36218 L 173.2,302.36218 L 129.9,277.36218 z "
       id="path2931" />
    <path
       style="opacity:1;fill:red;fill-opacity:1;fill-rule:evenodd;stroke:black;stroke-width:1px;stroke-linecap:butt;stroke-linejoin:miter;stroke-opacity:1;display:inline"
       d="M 173.2,252.36218 L 216.5,227.36218 L 259.8,252.36218 L 216.5,277.36218 L 173.2,252.36218 z "
       id="path2933" />
    <path
       style="opacity:1;fill:blue;fill-opacity:1;fill-rule:evenodd;stroke:black;stroke-width:1px;stroke-linecap:butt;stroke-linejoin:miter;stroke-opacity:1;display:inline"
       d="M 173.2,302.36218 L 216.5,277.36218 L 259.8,302.36218 L 216.5,327.36218 L 173.2,302.36218 z "
       id="path2935" />
    <path
       style="opacity:1;fill:blue;fill-opacity:1;fill-rule:evenodd;stroke:black;stroke-width:1px;stroke-linecap:butt;stroke-linejoin:miter;stroke-opacity:1;display:inline"
       d="M 173.2,302.36218 L 173.2,327.36218 L 216.5,352.36218 L 216.5,327.36218 L 173.2,302.36218 z "
       id="path2937" />
    <path
       style="opacity:1;fill:lime;fill-opacity:1;fill-rule:evenodd;stroke:black;stroke-width:1px;stroke-linecap:butt;stroke-linejoin:miter;stroke-opacity:1;display:inline"
       d="M 216.5,277.36218 L 259.8,252.36218 L 303.1,277.36218 L 259.8,302.36218 L 216.5,277.36218 z "
       id="path2939" />
    <path
       style="opacity:1;fill:lime;fill-opacity:1;fill-rule:evenodd;stroke:black;stroke-width:1px;stroke-linecap:butt;stroke-linejoin:miter;stroke-opacity:1;display:inline"
       d="M 216.5,327.36218 L 259.8,352.36218 L 259.8,377.36218 L 216.5,352.36218 L 216.5,327.36218 z "
       id="path2941" />
    <path
       style="opacity:1;fill:lime;fill-opacity:1;fill-rule:evenodd;stroke:black;stroke-width:1px;stroke-linecap:butt;stroke-linejoin:miter;stroke-opacity:1;display:inline"
       d="M 216.5,327.36218 L 259.8,302.36218 L 303.1,327.36218 L 259.8,352.36218 L 216.5,327.36218 z "
       id="path2943" />
    <path
       style="opacity:1;fill:red;fill-opacity:1;fill-rule:evenodd;stroke:black;stroke-width:1px;stroke-linecap:butt;stroke-linejoin:miter;stroke-opacity:1;display:inline"
       d="M 259.8,302.36218 L 303.1,277.36218 L 346.4,302.36218 L 303.1,327.36218 L 259.8,302.36218 z "
       id="path2945" />
    <path
       style="opacity:1;fill:blue;fill-opacity:1;fill-rule:evenodd;stroke:black;stroke-width:1px;stroke-linecap:butt;stroke-linejoin:miter;stroke-opacity:1;display:inline"
       d="M 259.8,352.36218 L 303.1,327.36218 L 346.4,352.36218 L 303.1,377.36218 L 259.8,352.36218 z "
       id="path2947" />
    <path
       style="opacity:1;fill:blue;fill-opacity:1;fill-rule:evenodd;stroke:black;stroke-width:1px;stroke-linecap:butt;stroke-linejoin:miter;stroke-opacity:1;display:inline"
       d="M 259.8,352.36218 L 259.8,377.36218 L 303.1,402.36218 L 303.1,377.36218 L 259.8,352.36218 z "
       id="path2949" />
    <path
       style="fill:#00ff00;fill-opacity:1;fill-rule:evenodd;stroke:#000000;stroke-width:1px;stroke-linecap:butt;stroke-linejoin:miter;stroke-opacity:1;display:inline"
       d="m 475.8,327.86218 0,25 -43.3,25 0,-25 43.3,-25 z"
       id="path3037" />
    <path
       style="opacity:1;fill:lime;fill-opacity:1;fill-rule:evenodd;stroke:black;stroke-width:1px;stroke-linecap:butt;stroke-linejoin:miter;stroke-opacity:1;display:inline"
       d="M 303.1,327.36218 L 346.4,302.36218 L 389.7,327.36218 L 346.4,352.36218 L 303.1,327.36218 z "
       id="path2951" />
    <path
       style="opacity:1;fill:blue;fill-opacity:1;fill-rule:evenodd;stroke:black;stroke-width:1px;stroke-linecap:butt;stroke-linejoin:miter;stroke-opacity:1;display:inline"
       d="M 86.6,152.36218 L 129.9,127.36218 L 173.2,152.36218 L 129.9,177.36218 L 86.6,152.36218 z "
       id="path2957" />
    <path
       style="opacity:1;fill:lime;fill-opacity:1;fill-rule:evenodd;stroke:black;stroke-width:1px;stroke-linecap:butt;stroke-linejoin:miter;stroke-opacity:1;display:inline"
       d="M 129.9,177.36218 L 173.2,152.36218 L 216.5,177.36218 L 173.2,202.36218 L 129.9,177.36218 z "
       id="path2959" />
    <path
       style="opacity:1;fill:lime;fill-opacity:1;fill-rule:evenodd;stroke:black;stroke-width:1px;stroke-linecap:butt;stroke-linejoin:miter;stroke-opacity:1;display:inline"
       d="M 129.9,127.36218 L 173.2,102.36218 L 216.5,127.36218 L 173.2,152.36218 L 129.9,127.36218 z "
       id="path2961" />
    <path
       style="opacity:1;fill:red;fill-opacity:1;fill-rule:evenodd;stroke:black;stroke-width:1px;stroke-linecap:butt;stroke-linejoin:miter;stroke-opacity:1;display:inline"
       d="M 173.2,152.36218 L 216.5,127.36218 L 259.8,152.36218 L 216.5,177.36218 L 173.2,152.36218 z "
       id="path2963" />
    <path
       style="opacity:1;fill:blue;fill-opacity:1;fill-rule:evenodd;stroke:black;stroke-width:1px;stroke-linecap:butt;stroke-linejoin:miter;stroke-opacity:1;display:inline"
       d="M 173.2,202.36218 L 216.5,177.36218 L 259.8,202.36218 L 216.5,227.36218 L 173.2,202.36218 z "
       id="path2965" />
    <path
       style="opacity:1;fill:lime;fill-opacity:1;fill-rule:evenodd;stroke:black;stroke-width:1px;stroke-linecap:butt;stroke-linejoin:miter;stroke-opacity:1;display:inline"
       d="M 216.5,177.36218 L 259.8,152.36218 L 303.1,177.36218 L 259.8,202.36218 L 216.5,177.36218 z "
       id="path2967" />
    <path
       style="opacity:1;fill:lime;fill-opacity:1;fill-rule:evenodd;stroke:black;stroke-width:1px;stroke-linecap:butt;stroke-linejoin:miter;stroke-opacity:1;display:inline"
       d="M 216.5,227.36218 L 259.8,202.36218 L 303.1,227.36218 L 259.8,252.36218 L 216.5,227.36218 z "
       id="path2969" />
    <path
       style="opacity:1;fill:red;fill-opacity:1;fill-rule:evenodd;stroke:black;stroke-width:1px;stroke-linecap:butt;stroke-linejoin:miter;stroke-opacity:1;display:inline"
       d="M 259.8,202.36218 L 303.1,177.36218 L 346.4,202.36218 L 303.1,227.36218 L 259.8,202.36218 z "
       id="path2971" />
    <path
       style="opacity:1;fill:blue;fill-opacity:1;fill-rule:evenodd;stroke:black;stroke-width:1px;stroke-linecap:butt;stroke-linejoin:miter;stroke-opacity:1;display:inline"
       d="M 259.8,252.36218 L 303.1,227.36218 L 346.4,252.36218 L 303.1,277.36218 L 259.8,252.36218 z "
       id="path2973" />
    <path
       style="opacity:1;fill:lime;fill-opacity:1;fill-rule:evenodd;stroke:black;stroke-width:1px;stroke-linecap:butt;stroke-linejoin:miter;stroke-opacity:1;display:inline"
       d="M 303.1,227.36218 L 346.4,202.36218 L 389.7,227.36218 L 346.4,252.36218 L 303.1,227.36218 z "
       id="path2975" />
    <path
       style="opacity:1;fill:lime;fill-opacity:1;fill-rule:evenodd;stroke:black;stroke-width:1px;stroke-linecap:butt;stroke-linejoin:miter;stroke-opacity:1;display:inline"
       d="M 303.1,277.36218 L 346.4,252.36218 L 389.7,277.36218 L 346.4,302.36218 L 303.1,277.36218 z "
       id="path2977" />
    <path
       style="opacity:1;fill:red;fill-opacity:1;fill-rule:evenodd;stroke:black;stroke-width:1px;stroke-linecap:butt;stroke-linejoin:miter;stroke-opacity:1;display:inline"
       d="M 346.4,252.36218 L 389.7,227.36218 L 433,252.36218 L 389.7,277.36218 L 346.4,252.36218 z "
       id="path2979" />
    <path
       style="opacity:1;fill:blue;fill-opacity:1;fill-rule:evenodd;stroke:black;stroke-width:1px;stroke-linecap:butt;stroke-linejoin:miter;stroke-opacity:1;display:inline"
       d="M 173.2,102.36218 L 216.5,77.362186 L 259.8,102.36218 L 216.5,127.36218 L 173.2,102.36218 z "
       id="path2981" />
    <path
       style="opacity:1;fill:lime;fill-opacity:1;fill-rule:evenodd;stroke:black;stroke-width:1px;stroke-linecap:butt;stroke-linejoin:miter;stroke-opacity:1;display:inline"
       d="M 216.5,127.36218 L 259.8,102.36218 L 303.1,127.36218 L 259.8,152.36218 L 216.5,127.36218 z "
       id="path2983" />
    <path
       style="opacity:1;fill:lime;fill-opacity:1;fill-rule:evenodd;stroke:black;stroke-width:1px;stroke-linecap:butt;stroke-linejoin:miter;stroke-opacity:1;display:inline"
       d="M 216.5,77.362186 L 259.8,52.362186 L 303.1,77.362186 L 259.8,102.36218 L 216.5,77.362186 z "
       id="path2985" />
    <path
       style="opacity:1;fill:red;fill-opacity:1;fill-rule:evenodd;stroke:black;stroke-width:1px;stroke-linecap:butt;stroke-linejoin:miter;stroke-opacity:1;display:inline"
       d="M 259.8,102.36218 L 303.1,77.362186 L 346.4,102.36218 L 303.1,127.36218 L 259.8,102.36218 z "
       id="path2987" />
    <path
       style="opacity:1;fill:blue;fill-opacity:1;fill-rule:evenodd;stroke:black;stroke-width:1px;stroke-linecap:butt;stroke-linejoin:miter;stroke-opacity:1;display:inline"
       d="M 259.8,152.36218 L 303.1,127.36218 L 346.4,152.36218 L 303.1,177.36218 L 259.8,152.36218 z "
       id="path2989" />
    <path
       style="opacity:1;fill:lime;fill-opacity:1;fill-rule:evenodd;stroke:black;stroke-width:1px;stroke-linecap:butt;stroke-linejoin:miter;stroke-opacity:1;display:inline"
       d="M 303.1,127.36218 L 346.4,102.36218 L 389.7,127.36218 L 346.4,152.36218 L 303.1,127.36218 z "
       id="path2991" />
    <path
       style="opacity:1;fill:lime;fill-opacity:1;fill-rule:evenodd;stroke:black;stroke-width:1px;stroke-linecap:butt;stroke-linejoin:miter;stroke-opacity:1;display:inline"
       d="M 303.1,177.36218 L 346.4,152.36218 L 389.7,177.36218 L 346.4,202.36218 L 303.1,177.36218 z "
       id="path2993" />
    <path
       style="opacity:1;fill:red;fill-opacity:1;fill-rule:evenodd;stroke:black;stroke-width:1px;stroke-linecap:butt;stroke-linejoin:miter;stroke-opacity:1;display:inline"
       d="M 346.4,152.36218 L 389.7,127.36218 L 433,152.36218 L 389.7,177.36218 L 346.4,152.36218 z "
       id="path2995" />
    <path
       style="opacity:1;fill:blue;fill-opacity:1;fill-rule:evenodd;stroke:black;stroke-width:1px;stroke-linecap:butt;stroke-linejoin:miter;stroke-opacity:1;display:inline"
       d="M 346.4,202.36218 L 389.7,177.36218 L 433,202.36218 L 389.7,227.36218 L 346.4,202.36218 z "
       id="path2997" />
    <path
       style="opacity:1;fill:lime;fill-opacity:1;fill-rule:evenodd;stroke:black;stroke-width:1px;stroke-linecap:butt;stroke-linejoin:miter;stroke-opacity:1;display:inline"
       d="M 476.3,127.36218 L 476.3,152.36218 L 433,177.36217 L 433,152.36218 L 476.3,127.36218 z "
       id="path3031" />
    <path
       style="opacity:1;fill:lime;fill-opacity:1;fill-rule:evenodd;stroke:black;stroke-width:1px;stroke-linecap:butt;stroke-linejoin:miter;stroke-opacity:1;display:inline"
       d="M 476.3,177.36218 L 476.3,202.36218 L 433,227.36217 L 433,202.36218 L 476.3,177.36218 z "
       id="path3033" />
    <path
       style="opacity:1;fill:lime;fill-opacity:1;fill-rule:evenodd;stroke:black;stroke-width:1px;stroke-linecap:butt;stroke-linejoin:miter;stroke-opacity:1;display:inline"
       d="M 389.7,177.36218 L 433,152.36218 L 476.3,177.36218 L 433,202.36218 L 389.7,177.36218 z "
       id="path2999" />
    <path
       style="opacity:1;fill:lime;fill-opacity:1;fill-rule:evenodd;stroke:black;stroke-width:1px;stroke-linecap:butt;stroke-linejoin:miter;stroke-opacity:1;display:inline"
       d="M 389.7,227.36218 L 433,202.36218 L 476.3,227.36218 L 433,252.36218 L 389.7,227.36218 z "
       id="path3001" />
    <path
       style="opacity:1;fill:blue;fill-opacity:1;fill-rule:evenodd;stroke:black;stroke-width:1px;stroke-linecap:butt;stroke-linejoin:miter;stroke-opacity:1;display:inline"
       d="M 259.8,52.36218 L 303.1,27.362186 L 346.4,52.36218 L 303.1,77.36218 L 259.8,52.36218 z "
       id="path3005" />
    <path
       style="opacity:1;fill:lime;fill-opacity:1;fill-rule:evenodd;stroke:black;stroke-width:1px;stroke-linecap:butt;stroke-linejoin:miter;stroke-opacity:1;display:inline"
       d="M 303.1,77.36218 L 346.4,52.36218 L 389.7,77.36218 L 346.4,102.36218 L 303.1,77.36218 z "
       id="path3007" />
    <path
       style="opacity:1;fill:lime;fill-opacity:1;fill-rule:evenodd;stroke:black;stroke-width:1px;stroke-linecap:butt;stroke-linejoin:miter;stroke-opacity:1;display:inline"
       d="M 303.1,27.362186 L 346.4,2.3621852 L 389.7,27.362186 L 346.4,52.36218 L 303.1,27.362186 z "
       id="path3009" />
    <path
       style="opacity:1;fill:red;fill-opacity:1;fill-rule:evenodd;stroke:black;stroke-width:1px;stroke-linecap:butt;stroke-linejoin:miter;stroke-opacity:1;display:inline"
       d="M 346.4,52.36218 L 389.7,27.362186 L 433,52.36218 L 389.7,77.36218 L 346.4,52.36218 z "
       id="path3011" />
    <path
       style="opacity:1;fill:blue;fill-opacity:1;fill-rule:evenodd;stroke:black;stroke-width:1px;stroke-linecap:butt;stroke-linejoin:miter;stroke-opacity:1;display:inline"
       d="M 346.4,102.36218 L 389.7,77.36218 L 433,102.36218 L 389.7,127.36218 L 346.4,102.36218 z "
       id="path3013" />
    <path
       style="opacity:1;fill:lime;fill-opacity:1;fill-rule:evenodd;stroke:black;stroke-width:1px;stroke-linecap:butt;stroke-linejoin:miter;stroke-opacity:1;display:inline"
       d="M 389.7,127.36218 L 433,102.36218 L 476.3,127.36218 L 433,152.36218 L 389.7,127.36218 z "
       id="path3017" />
    <path
       style="fill:gray;fill-opacity:1;fill-rule:evenodd;stroke:black;stroke-width:1px;stroke-linecap:butt;stroke-linejoin:miter;stroke-opacity:1"
       d="M 0,227.36218 L 0,252.36218 L 43.3,277.36218 L 43.3,252.36218 L 0,227.36218 z "
       id="path3041" />
    <path
       style="opacity:1;fill:gray;fill-opacity:1;fill-rule:evenodd;stroke:black;stroke-width:1px;stroke-linecap:butt;stroke-linejoin:miter;stroke-opacity:1;display:inline"
       d="M 43.3,252.36218 L 43.3,277.36218 L 86.6,302.36218 L 86.6,277.36218 L 43.3,252.36218 z "
       id="path3043" />
    <path
       style="opacity:1;fill:gray;fill-opacity:1;fill-rule:evenodd;stroke:black;stroke-width:1px;stroke-linecap:butt;stroke-linejoin:miter;stroke-opacity:1;display:inline"
       d="M 86.6,277.36218 L 86.6,302.36218 L 129.9,327.36218 L 129.9,302.36218 L 86.6,277.36218 z "
       id="path3045" />
    <path
       style="opacity:1;fill:gray;fill-opacity:1;fill-rule:evenodd;stroke:black;stroke-width:1px;stroke-linecap:butt;stroke-linejoin:miter;stroke-opacity:1;display:inline"
       d="M 129.9,302.36218 L 129.9,327.36218 L 173.2,352.36218 L 173.2,327.36218 L 129.9,302.36218 z "
       id="path3047" />
    <path
       style="opacity:1;fill:gray;fill-opacity:1;fill-rule:evenodd;stroke:black;stroke-width:1px;stroke-linecap:butt;stroke-linejoin:miter;stroke-opacity:1;display:inline"
       d="M 173.2,327.36218 L 173.2,352.36218 L 216.5,377.36218 L 216.5,352.36218 L 173.2,327.36218 z "
       id="path3049" />
    <path
       style="opacity:1;fill:gray;fill-opacity:1;fill-rule:evenodd;stroke:black;stroke-width:1px;stroke-linecap:butt;stroke-linejoin:miter;stroke-opacity:1;display:inline"
       d="M 216.5,352.36218 L 216.5,377.36218 L 259.8,402.36218 L 259.8,377.36218 L 216.5,352.36218 z "
       id="path3051" />
    <path
       style="opacity:1;fill:gray;fill-opacity:1;fill-rule:evenodd;stroke:black;stroke-width:1px;stroke-linecap:butt;stroke-linejoin:miter;stroke-opacity:1;display:inline"
       d="M 259.8,377.36218 L 259.8,402.36218 L 303.1,427.36218 L 303.1,402.36218 L 259.8,377.36218 z "
       id="path3053" />
    <path
       style="fill:#808080;fill-opacity:1;fill-rule:evenodd;stroke:#000000;stroke-width:1px;stroke-linecap:butt;stroke-linejoin:miter;stroke-opacity:1"
       d="m 345.9,452.86218 43.3,-25 0,-25 -43.3,25 0,25 z"
       id="path3055" />
    <path
       style="opacity:1;fill:gray;fill-opacity:1;fill-rule:evenodd;stroke:black;stroke-width:1px;stroke-linecap:butt;stroke-linejoin:miter;stroke-opacity:1;display:inline"
       d="M 303.1,402.36218 L 303.1,427.36218 L 346.4,452.36218 L 346.4,427.36218 L 303.1,402.36218 z "
       id="path3057" />
    <path
       style="opacity:1;fill:gray;fill-opacity:1;fill-rule:evenodd;stroke:black;stroke-width:1px;stroke-linecap:butt;stroke-linejoin:miter;stroke-opacity:1;display:inline"
       d="M 389.2,427.86218 L 432.5,402.86218 L 432.5,377.86218 L 389.2,402.86218 L 389.2,427.86218 z "
       id="path3061" />
    <path
       style="opacity:1;fill:gray;fill-opacity:1;fill-rule:evenodd;stroke:black;stroke-width:1px;stroke-linecap:butt;stroke-linejoin:miter;stroke-opacity:1;display:inline"
       d="M 432.5,402.86218 L 475.8,377.86218 L 475.8,352.86218 L 432.5,377.86218 L 432.5,402.86218 z "
       id="path3065" />
    <path
       style="opacity:1;fill:gray;fill-opacity:1;fill-rule:evenodd;stroke:black;stroke-width:1px;stroke-linecap:butt;stroke-linejoin:miter;stroke-opacity:1;display:inline"
       d="M 475.8,377.86218 L 519.1,352.86218 L 519.1,327.86218 L 475.8,352.86218 L 475.8,377.86218 z "
       id="path3069" />
    <path
       style="opacity:1;fill:gray;fill-opacity:1;fill-rule:evenodd;stroke:black;stroke-width:1px;stroke-linecap:butt;stroke-linejoin:miter;stroke-opacity:1;display:inline"
       d="M 519.1,352.86218 L 562.4,327.86218 L 562.4,302.86218 L 519.1,327.86218 L 519.1,352.86218 z "
       id="path3079" />
    <path
       style="opacity:1;fill:gray;fill-opacity:1;fill-rule:evenodd;stroke:black;stroke-width:1px;stroke-linecap:butt;stroke-linejoin:miter;stroke-opacity:1;display:inline"
       d="M 562.4,327.86218 L 605.7,302.86218 L 605.7,277.86218 L 562.4,302.86218 L 562.4,327.86218 z "
       id="path3083" />
    <path
       style="opacity:1;fill:gray;fill-opacity:1;fill-rule:evenodd;stroke:black;stroke-width:1px;stroke-linecap:butt;stroke-linejoin:miter;stroke-opacity:1;display:inline"
       d="M 605.7,302.86218 L 649,277.86218 L 649,252.86218 L 605.7,277.86218 L 605.7,302.86218 z "
       id="path3091" />
    <path
       style="opacity:1;fill:gray;fill-opacity:1;fill-rule:evenodd;stroke:black;stroke-width:1px;stroke-linecap:butt;stroke-linejoin:miter;stroke-opacity:1;display:inline"
       d="M 649,277.86218 L 692.3,252.86218 L 692.3,227.86218 L 649,252.86218 L 649,277.86218 z "
       id="path3095" />
    <path
       style="fill:#ff0000;fill-opacity:1;fill-rule:evenodd;stroke:#000000;stroke-width:1px;stroke-linecap:butt;stroke-linejoin:miter;stroke-opacity:1;display:inline"
       d="m 433.57143,202.14789 43.3,-25 43.3,25 -43.3,25 -43.3,-25 z"
       id="path2987-1" />
    <path
       style="fill:#00ff00;fill-opacity:1;fill-rule:evenodd;stroke:#000000;stroke-width:1px;stroke-linecap:butt;stroke-linejoin:miter;stroke-opacity:1;display:inline"
       d="m 346.27881,427.10457 43.3,-25 0,-25 -43.3,25 0,25 z"
       id="path2955-7" />
    <path
       style="fill:#00ff00;fill-opacity:1;fill-rule:evenodd;stroke:#000000;stroke-width:1px;stroke-linecap:butt;stroke-linejoin:miter;stroke-opacity:1;display:inline"
       d="m 302.6,376.9783 43.3,25 0,25 -43.3,-25 0,-25 z"
       id="path2941-4" />
    <path
       style="fill:#00ff00;fill-opacity:1;fill-rule:evenodd;stroke:#000000;stroke-width:1px;stroke-linecap:butt;stroke-linejoin:miter;stroke-opacity:1;display:inline"
       d="m 302.6,376.86218 43.3,-25 43.3,25 -43.3,25 -43.3,-25 z"
       id="path2951-0" />
    <path
       style="fill:#ff0000;fill-opacity:1;fill-rule:evenodd;stroke:#000000;stroke-width:1px;stroke-linecap:butt;stroke-linejoin:miter;stroke-opacity:1;display:inline"
       d="m 346.27881,351.98845 43.3,-25 43.3,25 -43.3,25 -43.3,-25 z"
       id="path2945-9" />
    <path
       style="fill:#ff0000;fill-opacity:1;fill-rule:evenodd;stroke:#000000;stroke-width:1px;stroke-linecap:butt;stroke-linejoin:miter;stroke-opacity:1;display:inline"
       d="m 432.62627,352.73592 0,24.99999 -43.3,25 0,-25 43.3,-25 z"
       id="path3039-4" />
    <path
       style="fill:#0000ff;fill-opacity:1;fill-rule:evenodd;stroke:#000000;stroke-width:1px;stroke-linecap:butt;stroke-linejoin:miter;stroke-opacity:1;display:inline"
       d="m 345.9,301.86218 43.3,-25 43.3,25 -43.3,25 -43.3,-25 z"
       id="path2973-8" />
    <path
       style="fill:#00ff00;fill-opacity:1;fill-rule:evenodd;stroke:#000000;stroke-width:1px;stroke-linecap:butt;stroke-linejoin:miter;stroke-opacity:1;display:inline"
       d="m 389.2,327.86218 43.3,-25 43.3,25 -43.3,25 -43.3,-25 z"
       id="path2977-8" />
    <path
       style="fill:#00ff00;fill-opacity:1;fill-rule:evenodd;stroke:#000000;stroke-width:1px;stroke-linecap:butt;stroke-linejoin:miter;stroke-opacity:1;display:inline"
       d="m 389.2,277.86218 43.3,-25 43.3,25 -43.3,25 -43.3,-25 z"
       id="path3001-2" />
    <path
       style="fill:#0000ff;fill-opacity:1;fill-rule:evenodd;stroke:#000000;stroke-width:1px;stroke-linecap:butt;stroke-linejoin:miter;stroke-opacity:1;display:inline"
       d="m 433.08,152.36218 43.3,-25 43.3,25 -43.3,25 -43.3,-25 z"
       id="path3013-8" />
    <path
       style="fill:#00ff00;fill-opacity:1;fill-rule:evenodd;stroke:#000000;stroke-width:1px;stroke-linecap:butt;stroke-linejoin:miter;stroke-opacity:1;display:inline"
       d="m 476.51429,177.3979 43.3,-25 43.3,25 -43.3,25 -43.3,-25 z"
       id="path3017-0" />
    <path
       style="fill:#0000ff;fill-opacity:1;fill-rule:evenodd;stroke:#000000;stroke-width:1px;stroke-linecap:butt;stroke-linejoin:miter;stroke-opacity:1;display:inline"
       d="m 432.1594,252.74979 43.3,-25 43.3,25 -43.3,25 -43.3,-25 z"
       id="path2997-2" />
    <path
       style="fill:#ff0000;fill-opacity:1;fill-rule:evenodd;stroke:#000000;stroke-width:1px;stroke-linecap:butt;stroke-linejoin:miter;stroke-opacity:1;display:inline"
       d="m 432.23439,302.81392 43.3,-25 43.3,25 -43.3,25 -43.3,-25 z"
       id="path2979-8" />
    <path
       style="fill:#ff0000;fill-opacity:1;fill-rule:evenodd;stroke:#000000;stroke-width:1px;stroke-linecap:butt;stroke-linejoin:miter;stroke-opacity:1;display:inline"
       d="m 519.40774,302.56267 0,24.99999 -43.3,25 0,-25 43.3,-25 z"
       id="path3039-4-6" />
    <path
       style="fill:#00ff00;fill-opacity:1;fill-rule:evenodd;stroke:#000000;stroke-width:1px;stroke-linecap:butt;stroke-linejoin:miter;stroke-opacity:1;display:inline"
       d="m 475.71427,227.55756 43.3,-25 43.3,25 -43.3,25 -43.3,-25 z"
       id="path2999-0" />
    <path
       style="fill:#0000ff;fill-opacity:1;fill-rule:evenodd;stroke:#000000;stroke-width:1px;stroke-linecap:butt;stroke-linejoin:miter;stroke-opacity:1;display:inline"
       d="m 519.39897,202.32393 43.3,-25 43.3,25 -43.3,25 -43.3,-25 z"
       id="path3013-8-2" />
    <path
       style="fill:#ff0000;fill-opacity:1;fill-rule:evenodd;stroke:#000000;stroke-width:1px;stroke-linecap:butt;stroke-linejoin:miter;stroke-opacity:1;display:inline"
       d="m 519.05715,252.93361 43.3,-25 43.3,25 -43.3,25 -43.3,-25 z"
       id="path2987-1-4" />
    <path
       style="fill:#00ff00;fill-opacity:1;fill-rule:evenodd;stroke:#000000;stroke-width:1px;stroke-linecap:butt;stroke-linejoin:miter;stroke-opacity:1;display:inline"
       d="m 475.48572,277.57647 43.3,-25 43.3,25 -43.3,25 -43.3,-25 z"
       id="path2999-0-8" />
    <path
       style="fill:#00ff00;fill-opacity:1;fill-rule:evenodd;stroke:#000000;stroke-width:1px;stroke-linecap:butt;stroke-linejoin:miter;stroke-opacity:1;display:inline"
       d="m 562.57858,277.57647 0,25 -43.3,25 0,-25 43.3,-25 z"
       id="path3037-6" />
    <path
       style="fill:#ff0000;fill-opacity:1;fill-rule:evenodd;stroke:#000000;stroke-width:1px;stroke-linecap:butt;stroke-linejoin:miter;stroke-opacity:1;display:inline"
       d="m 605.79286,252.93362 0,24.99999 -43.3,25 0,-25 43.3,-25 z"
       id="path3039-4-6-5" />
    <path
       style="fill:#00ff00;fill-opacity:1;fill-rule:evenodd;stroke:#000000;stroke-width:1px;stroke-linecap:butt;stroke-linejoin:miter;stroke-opacity:1;display:inline"
       d="m 562.41937,227.32393 43.3,-25 43.3,25 -43.3,25 -43.3,-25 z"
       id="path2999-0-0" />
    <path
       style="fill:#00ff00;fill-opacity:1;fill-rule:evenodd;stroke:#000000;stroke-width:1px;stroke-linecap:butt;stroke-linejoin:miter;stroke-opacity:1;display:inline"
       d="m 389.77143,77.21933 43.3,-25.000004 43.3,25.000004 -43.3,25 -43.3,-25 z"
       id="path3017-9" />
    <path
       style="fill:#ff0000;fill-opacity:1;fill-rule:evenodd;stroke:#000000;stroke-width:1px;stroke-linecap:butt;stroke-linejoin:miter;stroke-opacity:1;display:inline"
       d="m 433.16428,102.21933 43.3,-25.000001 43.3,25.000001 -43.3,25 -43.3,-25 z"
       id="path3011-0" />
    <path
       style="fill:#00ff00;fill-opacity:1;fill-rule:evenodd;stroke:#000000;stroke-width:1px;stroke-linecap:butt;stroke-linejoin:miter;stroke-opacity:1;display:inline"
       d="m 476.55715,127.21933 43.3,-25.00001 43.3,25.00001 -43.3,25 -43.3,-25 z"
       id="path3017-9-0" />
    <path
       style="fill:#ff0000;fill-opacity:1;fill-rule:evenodd;stroke:#000000;stroke-width:1px;stroke-linecap:butt;stroke-linejoin:miter;stroke-opacity:1;display:inline"
       d="m 520.21786,152.3979 43.3,-25 43.3,25 -43.3,25 -43.3,-25 z"
       id="path3011-0-6" />
    <path
       style="fill:#00ff00;fill-opacity:1;fill-rule:evenodd;stroke:#000000;stroke-width:1px;stroke-linecap:butt;stroke-linejoin:miter;stroke-opacity:1;display:inline"
       d="m 648.70727,227.81137 0,25 -43.3,25 0,-25 43.3,-25 z"
       id="path3037-6-1" />
    <path
       style="fill:#00ff00;fill-opacity:1;fill-rule:evenodd;stroke:#000000;stroke-width:1px;stroke-linecap:butt;stroke-linejoin:miter;stroke-opacity:1;display:inline"
       d="m 563.55422,177.42874 43.3,-25 43.3,25 -43.3,25 -43.3,-25 z"
       id="path2999-0-0-3" />
    <path
       style="fill:#ff0000;fill-opacity:1;fill-rule:evenodd;stroke:#000000;stroke-width:1px;stroke-linecap:butt;stroke-linejoin:miter;stroke-opacity:1;display:inline"
       d="m 606.80138,202.4097 43.3,-25 43.3,25 -43.3,25 -43.3,-25 z"
       id="path3011-0-6-8" />
    <path
       style="fill:#ff0000;fill-opacity:1;fill-rule:evenodd;stroke:#000000;stroke-width:1px;stroke-linecap:butt;stroke-linejoin:miter;stroke-opacity:1;display:inline"
       d="m 692.37607,202.83041 0,24.99999 -43.3,25 0,-25 43.3,-25 z"
       id="path3039-4-6-5-9" />
  </g>
</svg>
