<?xml version="1.0" encoding="UTF-8" standalone="no"?>
<svg
   xmlns:dc="http://purl.org/dc/elements/1.1/"
   xmlns:cc="http://creativecommons.org/ns#"
   xmlns:rdf="http://www.w3.org/1999/02/22-rdf-syntax-ns#"
   xmlns:svg="http://www.w3.org/2000/svg"
   xmlns="http://www.w3.org/2000/svg"
   xmlns:xlink="http://www.w3.org/1999/xlink"
   xmlns:sodipodi="http://sodipodi.sourceforge.net/DTD/sodipodi-0.dtd"
   xmlns:inkscape="http://www.inkscape.org/namespaces/inkscape"
   width="600"
   height="400"
   viewBox="0 0 600 400"
   id="svg2"
   version="1.1"
   inkscape:version="0.47 r22583"
   sodipodi:docname="bla.svg">
  <metadata
     id="metadata184">
    <rdf:RDF>
      <cc:Work
         rdf:about="">
        <dc:format>image/svg+xml</dc:format>
        <dc:type
           rdf:resource="http://purl.org/dc/dcmitype/StillImage" />
        <dc:title></dc:title>
      </cc:Work>
    </rdf:RDF>
  </metadata>
  <sodipodi:namedview
     pagecolor="#ffffff"
     bordercolor="#666666"
     borderopacity="1"
     objecttolerance="10"
     gridtolerance="10"
     guidetolerance="10"
     inkscape:pageopacity="0"
     inkscape:pageshadow="2"
     inkscape:window-width="1280"
     inkscape:window-height="1002"
     id="namedview182"
     showgrid="false"
     inkscape:zoom="0.70710678"
     inkscape:cx="228.99873"
     inkscape:cy="312.4645"
     inkscape:window-x="1272"
     inkscape:window-y="-8"
     inkscape:window-maximized="1"
     inkscape:current-layer="svg2" />
  <desc
     id="desc4">Produced by GNUPLOT 4.4 patchlevel 0 </desc>
  <defs
     id="defs6">
    <inkscape:perspective
       sodipodi:type="inkscape:persp3d"
       inkscape:vp_x="0 : 200 : 1"
       inkscape:vp_y="0 : 1000 : 0"
       inkscape:vp_z="600 : 200 : 1"
       inkscape:persp3d-origin="300 : 133.33333 : 1"
       id="perspective186" />
    <circle
       id="gpDot"
       r="0.5"
       stroke-width="0.5" />
    <path
       id="gpPt0"
       stroke-width="0.222"
       stroke="currentColor"
       d="M-1,0 h2 M0,-1 v2" />
    <path
       id="gpPt1"
       stroke-width="0.222"
       stroke="currentColor"
       d="M-1,-1 L1,1 M1,-1 L-1,1" />
    <path
       id="gpPt2"
       stroke-width="0.222"
       stroke="currentColor"
       d="M-1,0 L1,0 M0,-1 L0,1 M-1,-1 L1,1 M-1,1 L1,-1" />
    <rect
       id="gpPt3"
       stroke-width="0.222"
       stroke="currentColor"
       x="-1"
       y="-1"
       width="2"
       height="2" />
    <rect
       id="gpPt4"
       stroke-width="0.222"
       stroke="currentColor"
       fill="currentColor"
       x="-1"
       y="-1"
       width="2"
       height="2" />
    <circle
       id="gpPt5"
       stroke-width="0.222"
       stroke="currentColor"
       cx="0"
       cy="0"
       r="1" />
    <use
       xlink:href="#gpPt5"
       id="gpPt6"
       fill="currentColor"
       stroke="none" />
    <path
       id="gpPt7"
       stroke-width="0.222"
       stroke="currentColor"
       d="M0,-1.33 L-1.33,0.67 L1.33,0.67 z" />
    <use
       xlink:href="#gpPt7"
       id="gpPt8"
       fill="currentColor"
       stroke="none" />
    <use
       xlink:href="#gpPt7"
       id="gpPt9"
       stroke="currentColor"
       transform="rotate(180)" />
    <use
       xlink:href="#gpPt9"
       id="gpPt10"
       fill="currentColor"
       stroke="none" />
    <use
       xlink:href="#gpPt3"
       id="gpPt11"
       stroke="currentColor"
       transform="rotate(45)" />
    <use
       xlink:href="#gpPt11"
       id="gpPt12"
       fill="currentColor"
       stroke="none" />
    <path
       id="g021"
       d="M6.40866 -12.921C5.89016 -14.3936 4.2517 -14.3936 3.98208 -14.3936C3.85764 -14.3936 3.6295 -14.3936 3.6295 -14.1862C3.6295 -14.0202 3.75394 -13.9995 3.85764 -13.9788C4.16874 -13.9373 4.41762 -13.8958 4.74946 -13.2943C4.95686 -12.9003 7.09308 -6.69902 7.09308 -6.65754C7.09308 -6.6368 7.07234 -6.61606 6.90642 -6.45014L1.51402 -0.99552C1.26514 -0.74664 1.09922 -0.58072 1.09922 -0.3111C1.09922 -0.02074 1.3481 0.22814 1.67994 0.22814C1.7629 0.22814 1.99104 0.18666 2.11548 0.06222C2.44732 -0.24888 5.41314 -3.87838 7.30048 -6.1183C7.83972 -4.50058 8.5034 -2.5925 9.14634 -0.85034C9.25004 -0.53924 9.35374 -0.24888 9.6441 0.02074C9.8515 0.2074 9.89298 0.2074 10.4737 0.2074H10.8678C10.9507 0.2074 11.0959 0.2074 11.0959 0.04148C11.0959 -0.04148 11.0752 -0.06222 10.9922 -0.14518C10.8055 -0.37332 10.6604 -0.74664 10.5774 -0.99552L6.40866 -12.921Z" />
    <path
       id="g19"
       d="M8.0886 -12.6721C8.0886 -13.4188 8.13008 -13.6262 9.70632 -13.6262H10.1626V-14.1654C9.31226 -14.1239 8.31674 -14.1239 7.44566 -14.1239S5.55832 -14.1239 4.70798 -14.1654V-13.6262H5.16426C6.7405 -13.6262 6.78198 -13.4188 6.78198 -12.6721V-3.04878C3.81616 -3.65024 3.77468 -7.4664 3.77468 -8.54488C3.75394 -10.5152 3.23544 -11.5314 1.94956 -11.5314H1.41032C1.07848 -11.5314 0.97478 -11.5314 0.97478 -11.3655C0.97478 -11.3448 0.97478 -11.2203 1.07848 -11.2203C1.6592 -11.1166 2.44732 -10.9922 2.46806 -8.21304C2.4888 -6.28422 3.17322 -3.111 6.78198 -2.6962V-1.49328C6.78198 -0.74664 6.7405 -0.53924 5.16426 -0.53924H4.70798V-0C5.55832 -0.04148 6.57458 -0.04148 7.44566 -0.04148S9.31226 -0.04148 10.1626 -0V-0.53924H9.70632C8.13008 -0.53924 8.0886 -0.74664 8.0886 -1.49328V-2.6962C12.4025 -3.15248 12.444 -7.50788 12.444 -8.69006C12.444 -9.6441 12.6514 -10.9922 13.7091 -11.1996C13.9165 -11.2411 13.958 -11.2411 13.958 -11.3655C13.958 -11.5314 13.8543 -11.5314 13.5017 -11.5314H12.9625C11.5937 -11.5314 11.1581 -10.453 11.1374 -8.31674C11.1166 -6.1183 10.5359 -3.56728 8.0886 -3.04878V-12.6721Z" />
    <inkscape:perspective
       id="perspective3007"
       inkscape:persp3d-origin="0.5 : 0.33333333 : 1"
       inkscape:vp_z="1 : 0.5 : 1"
       inkscape:vp_y="0 : 1000 : 0"
       inkscape:vp_x="0 : 0.5 : 1"
       sodipodi:type="inkscape:persp3d" />
    <use
       stroke="none"
       fill="currentColor"
       id="gpPt12-6"
       xlink:href="#gpPt11-1" />
    <use
       transform="rotate(45)"
       stroke="currentColor"
       id="gpPt11-1"
       xlink:href="#gpPt3-7" />
    <use
       stroke="none"
       fill="currentColor"
       id="gpPt10-2"
       xlink:href="#gpPt9-2" />
    <use
       transform="rotate(180)"
       stroke="currentColor"
       id="gpPt9-2"
       xlink:href="#gpPt7-2" />
    <use
       stroke="none"
       fill="currentColor"
       id="gpPt8-3"
       xlink:href="#gpPt7-2" />
    <path
       d="M0,-1.33 L-1.33,0.67 L1.33,0.67 z"
       stroke="currentColor"
       stroke-width="0.222"
       id="gpPt7-2" />
    <use
       stroke="none"
       fill="currentColor"
       id="gpPt6-4"
       xlink:href="#gpPt5-1" />
    <circle
       r="1"
       cy="0"
       cx="0"
       stroke="currentColor"
       stroke-width="0.222"
       id="gpPt5-1" />
    <rect
       height="2"
       width="2"
       y="-1"
       x="-1"
       fill="currentColor"
       stroke="currentColor"
       stroke-width="0.222"
       id="gpPt4-6" />
    <rect
       height="2"
       width="2"
       y="-1"
       x="-1"
       stroke="currentColor"
       stroke-width="0.222"
       id="gpPt3-7" />
    <path
       d="M-1,0 L1,0 M0,-1 L0,1 M-1,-1 L1,1 M-1,1 L1,-1"
       stroke="currentColor"
       stroke-width="0.222"
       id="gpPt2-2" />
    <path
       d="M-1,-1 L1,1 M1,-1 L-1,1"
       stroke="currentColor"
       stroke-width="0.222"
       id="gpPt1-5" />
    <path
       d="M-1,0 h2 M0,-1 v2"
       stroke="currentColor"
       stroke-width="0.222"
       id="gpPt0-1" />
    <circle
       stroke-width="0.5"
       r="0.5"
       id="gpDot-1" />
    <inkscape:perspective
       id="perspective4387"
       inkscape:persp3d-origin="300 : 133.33333 : 1"
       inkscape:vp_z="600 : 200 : 1"
       inkscape:vp_y="0 : 1000 : 0"
       inkscape:vp_x="0 : 200 : 1"
       sodipodi:type="inkscape:persp3d" />
    <use
       stroke="none"
       fill="currentColor"
       id="gpPt12-3"
       xlink:href="#gpPt11-9" />
    <use
       transform="rotate(45)"
       stroke="currentColor"
       id="gpPt11-9"
       xlink:href="#gpPt3-1" />
    <use
       stroke="none"
       fill="currentColor"
       id="gpPt10-7"
       xlink:href="#gpPt9-27" />
    <use
       transform="rotate(180)"
       stroke="currentColor"
       id="gpPt9-27"
       xlink:href="#gpPt7-7" />
    <use
       stroke="none"
       fill="currentColor"
       id="gpPt8-4"
       xlink:href="#gpPt7-7" />
    <path
       d="M0,-1.33 L-1.33,0.67 L1.33,0.67 z"
       stroke="currentColor"
       stroke-width="0.222"
       id="gpPt7-7" />
    <use
       stroke="none"
       fill="currentColor"
       id="gpPt6-8"
       xlink:href="#gpPt5-3" />
    <circle
       r="1"
       cy="0"
       cx="0"
       stroke="currentColor"
       stroke-width="0.222"
       id="gpPt5-3" />
    <rect
       height="2"
       width="2"
       y="-1"
       x="-1"
       fill="currentColor"
       stroke="currentColor"
       stroke-width="0.222"
       id="gpPt4-1" />
    <rect
       height="2"
       width="2"
       y="-1"
       x="-1"
       stroke="currentColor"
       stroke-width="0.222"
       id="gpPt3-1" />
    <path
       d="M-1,0 L1,0 M0,-1 L0,1 M-1,-1 L1,1 M-1,1 L1,-1"
       stroke="currentColor"
       stroke-width="0.222"
       id="gpPt2-4" />
    <path
       d="M-1,-1 L1,1 M1,-1 L-1,1"
       stroke="currentColor"
       stroke-width="0.222"
       id="gpPt1-3" />
    <path
       d="M-1,0 h2 M0,-1 v2"
       stroke="currentColor"
       stroke-width="0.222"
       id="gpPt0-3" />
    <circle
       stroke-width="0.5"
       r="0.5"
       id="gpDot-2" />
    <inkscape:perspective
       id="perspective5226"
       inkscape:persp3d-origin="300 : 133.33333 : 1"
       inkscape:vp_z="600 : 200 : 1"
       inkscape:vp_y="0 : 1000 : 0"
       inkscape:vp_x="0 : 200 : 1"
       sodipodi:type="inkscape:persp3d" />
    <use
       stroke="none"
       fill="currentColor"
       id="gpPt12-5"
       xlink:href="#gpPt11-6" />
    <use
       transform="rotate(45)"
       stroke="currentColor"
       id="gpPt11-6"
       xlink:href="#gpPt3-0" />
    <use
       stroke="none"
       fill="currentColor"
       id="gpPt10-8"
       xlink:href="#gpPt9-4" />
    <use
       transform="rotate(180)"
       stroke="currentColor"
       id="gpPt9-4"
       xlink:href="#gpPt7-0" />
    <use
       stroke="none"
       fill="currentColor"
       id="gpPt8-2"
       xlink:href="#gpPt7-0" />
    <path
       d="M0,-1.33 L-1.33,0.67 L1.33,0.67 z"
       stroke="currentColor"
       stroke-width="0.222"
       id="gpPt7-0" />
    <use
       stroke="none"
       fill="currentColor"
       id="gpPt6-6"
       xlink:href="#gpPt5-8" />
    <circle
       r="1"
       cy="0"
       cx="0"
       stroke="currentColor"
       stroke-width="0.222"
       id="gpPt5-8" />
    <rect
       height="2"
       width="2"
       y="-1"
       x="-1"
       fill="currentColor"
       stroke="currentColor"
       stroke-width="0.222"
       id="gpPt4-2" />
    <rect
       height="2"
       width="2"
       y="-1"
       x="-1"
       stroke="currentColor"
       stroke-width="0.222"
       id="gpPt3-0" />
    <path
       d="M-1,0 L1,0 M0,-1 L0,1 M-1,-1 L1,1 M-1,1 L1,-1"
       stroke="currentColor"
       stroke-width="0.222"
       id="gpPt2-5" />
    <path
       d="M-1,-1 L1,1 M1,-1 L-1,1"
       stroke="currentColor"
       stroke-width="0.222"
       id="gpPt1-6" />
    <path
       d="M-1,0 h2 M0,-1 v2"
       stroke="currentColor"
       stroke-width="0.222"
       id="gpPt0-8" />
    <circle
       stroke-width="0.5"
       r="0.5"
       id="gpDot-19" />
    <inkscape:perspective
       id="perspective5641"
       inkscape:persp3d-origin="300 : 133.33333 : 1"
       inkscape:vp_z="600 : 200 : 1"
       inkscape:vp_y="0 : 1000 : 0"
       inkscape:vp_x="0 : 200 : 1"
       sodipodi:type="inkscape:persp3d" />
    <use
       stroke="none"
       fill="currentColor"
       id="gpPt12-8"
       xlink:href="#gpPt11-61" />
    <use
       transform="rotate(45)"
       stroke="currentColor"
       id="gpPt11-61"
       xlink:href="#gpPt3-6" />
    <use
       stroke="none"
       fill="currentColor"
       id="gpPt10-6"
       xlink:href="#gpPt9-0" />
    <use
       transform="rotate(180)"
       stroke="currentColor"
       id="gpPt9-0"
       xlink:href="#gpPt7-4" />
    <use
       stroke="none"
       fill="currentColor"
       id="gpPt8-46"
       xlink:href="#gpPt7-4" />
    <path
       d="M0,-1.33 L-1.33,0.67 L1.33,0.67 z"
       stroke="currentColor"
       stroke-width="0.222"
       id="gpPt7-4" />
    <use
       stroke="none"
       fill="currentColor"
       id="gpPt6-3"
       xlink:href="#gpPt5-89" />
    <circle
       r="1"
       cy="0"
       cx="0"
       stroke="currentColor"
       stroke-width="0.222"
       id="gpPt5-89" />
    <rect
       height="2"
       width="2"
       y="-1"
       x="-1"
       fill="currentColor"
       stroke="currentColor"
       stroke-width="0.222"
       id="gpPt4-13" />
    <rect
       height="2"
       width="2"
       y="-1"
       x="-1"
       stroke="currentColor"
       stroke-width="0.222"
       id="gpPt3-6" />
    <path
       d="M-1,0 L1,0 M0,-1 L0,1 M-1,-1 L1,1 M-1,1 L1,-1"
       stroke="currentColor"
       stroke-width="0.222"
       id="gpPt2-0" />
    <path
       d="M-1,-1 L1,1 M1,-1 L-1,1"
       stroke="currentColor"
       stroke-width="0.222"
       id="gpPt1-0" />
    <path
       d="M-1,0 h2 M0,-1 v2"
       stroke="currentColor"
       stroke-width="0.222"
       id="gpPt0-9" />
    <circle
       stroke-width="0.5"
       r="0.5"
       id="gpDot-0" />
    <inkscape:perspective
       id="perspective6055"
       inkscape:persp3d-origin="300 : 133.33333 : 1"
       inkscape:vp_z="600 : 200 : 1"
       inkscape:vp_y="0 : 1000 : 0"
       inkscape:vp_x="0 : 200 : 1"
       sodipodi:type="inkscape:persp3d" />
  </defs>
  <g
     style="fill:none; color:white; stroke:currentColor; stroke-width:1.00; stroke-linecap:butt; stroke-linejoin:miter"
     id="g22" />
  <g
     id="g28"
     style="font-size:15px;text-anchor:end;color:#000000;fill:#000000;stroke:none;font-family:Times New Roman"
     transform="translate(80.2,346.9)">
    <text
       id="text30">0</text>
  </g>
  <g
     id="g34"
     style="font-size:15px;text-anchor:end;color:#000000;fill:#000000;stroke:none;font-family:Times New Roman"
     transform="translate(80.2,305.1)">
    <text
       id="text36">0.01</text>
  </g>
  <g
     id="g40"
     style="font-size:15px;text-anchor:end;color:#000000;fill:#000000;stroke:none;font-family:Times New Roman"
     transform="translate(80.2,263.4)">
    <text
       id="text42">0.02</text>
  </g>
  <g
     id="g46"
     style="font-size:15px;text-anchor:end;color:#000000;fill:#000000;stroke:none;font-family:Times New Roman"
     transform="translate(80.2,221.6)">
    <text
       id="text48">0.03</text>
  </g>
  <g
     id="g52"
     style="font-size:15px;text-anchor:end;color:#000000;fill:#000000;stroke:none;font-family:Times New Roman"
     transform="translate(80.2,179.9)">
    <text
       id="text54">0.04</text>
  </g>
  <g
     id="g58"
     style="font-size:15px;text-anchor:end;color:#000000;fill:#000000;stroke:none;font-family:Times New Roman"
     transform="translate(80.2,138.1)">
    <text
       id="text60">0.05</text>
  </g>
  <g
     id="g64"
     style="font-size:15px;text-anchor:end;color:#000000;fill:#000000;stroke:none;font-family:Times New Roman"
     transform="translate(80.2,96.4)">
    <text
       id="text66">0.06</text>
  </g>
  <g
     id="g70"
     style="font-size:15px;text-anchor:end;color:#000000;fill:#000000;stroke:none;font-family:Times New Roman"
     transform="translate(80.2,54.6)">
    <text
       id="text72">0.07</text>
  </g>
  <g
     id="g76"
     style="font-size:15px;text-anchor:middle;color:#000000;fill:#000000;stroke:none;font-family:Times New Roman"
     transform="translate(80.2,364.9)">
    <text
       id="text78">1</text>
  </g>
  <g
     id="g82"
     style="font-size:15px;text-anchor:middle;color:#000000;fill:#000000;stroke:none;font-family:Times New Roman"
     transform="translate(178.2,364.9)">
    <text
       id="text84">10</text>
  </g>
  <g
     id="g88"
     style="font-size:15px;text-anchor:middle;color:#000000;fill:#000000;stroke:none;font-family:Times New Roman"
     transform="translate(276.1,364.9)">
    <text
       id="text90">100</text>
  </g>
  <g
     id="g94"
     style="font-size:15px;text-anchor:middle;color:#000000;fill:#000000;stroke:none;font-family:Times New Roman"
     transform="translate(374.1,364.9)">
    <text
       id="text96">1000</text>
  </g>
  <g
     id="g100"
     style="font-size:15px;text-anchor:middle;color:#000000;fill:#000000;stroke:none;font-family:Times New Roman"
     transform="translate(472,364.9)">
    <text
       id="text102">10000</text>
  </g>
  <g
     id="g106"
     style="font-size:15px;text-anchor:middle;color:#000000;fill:#000000;stroke:none;font-family:Times New Roman"
     transform="translate(570,364.9)">
    <text
       id="text108">100000</text>
  </g>
  <use
     height="1"
     width="1"
     x="56.624802"
     xlink:href="#g021"
     y="68.402802"
     id="use2999"
     transform="matrix(1.135701,0,0,1.135701,254.91404,299.69539)" />
  <use
     height="1"
     width="1"
     x="68.471001"
     xlink:href="#g19"
     y="68.402802"
     id="use3001"
     transform="matrix(0,-1.135701,1.135701,0,-39.48509,264.57886)" />
  <g
     style="color:#ffffff;fill:none;stroke:currentColor;stroke-width:1;stroke-linecap:butt;stroke-linejoin:miter"
     id="g4223"
     transform="translate(-392.8206,-463.88317)" />
  <g
     style="color:#ffffff;fill:none;stroke:currentColor;stroke-width:1;stroke-linecap:butt;stroke-linejoin:miter"
     id="g5062"
     transform="translate(-119.87738,-481.56084)" />
  <g
     style="color:#ffffff;fill:none;stroke:currentColor;stroke-width:1;stroke-linecap:butt;stroke-linejoin:miter"
     id="g5477"
     transform="translate(-59.066197,-478.73241)" />
  <g
     style="color:#ffffff;fill:none;stroke:currentColor;stroke-width:1;stroke-linecap:butt;stroke-linejoin:miter"
     id="g5891"
     transform="translate(25.786618,-440.54864)" />
  <path
     style="color:#000000;fill:none;stroke:currentColor;stroke-width:1;stroke-linecap:butt;stroke-linejoin:miter"
     id="path5895"
     d="m 88.500002,342.4 9,0 m 481.599998,0 -9,0" />
  <path
     style="color:#000000;fill:none;stroke:currentColor;stroke-width:1;stroke-linecap:butt;stroke-linejoin:miter"
     id="path5901"
     d="m 88.500002,300.6 9,0 m 481.599998,0 -9,0" />
  <path
     style="color:#000000;fill:none;stroke:currentColor;stroke-width:1;stroke-linecap:butt;stroke-linejoin:miter"
     id="path5907"
     d="m 88.500002,258.9 9,0 m 481.599998,0 -9,0" />
  <path
     style="color:#000000;fill:none;stroke:currentColor;stroke-width:1;stroke-linecap:butt;stroke-linejoin:miter"
     id="path5913"
     d="m 88.500002,217.1 9,0 m 481.599998,0 -9,0" />
  <path
     style="color:#000000;fill:none;stroke:currentColor;stroke-width:1;stroke-linecap:butt;stroke-linejoin:miter"
     id="path5919"
     d="m 88.500002,175.4 9,0 m 481.599998,0 -9,0" />
  <path
     style="color:#000000;fill:none;stroke:currentColor;stroke-width:1;stroke-linecap:butt;stroke-linejoin:miter"
     id="path5925"
     d="m 88.500002,133.6 9,0 m 481.599998,0 -9,0" />
  <path
     style="color:#000000;fill:none;stroke:currentColor;stroke-width:1;stroke-linecap:butt;stroke-linejoin:miter"
     id="path5931"
     d="m 88.500002,91.9 9,0 m 481.599998,0 -9,0" />
  <path
     style="color:#000000;fill:none;stroke:currentColor;stroke-width:1;stroke-linecap:butt;stroke-linejoin:miter"
     id="path5937"
     d="m 88.500002,50.1 9,0 m 481.599998,0 -9,0" />
  <path
     style="color:#000000;fill:none;stroke:currentColor;stroke-width:1;stroke-linecap:butt;stroke-linejoin:miter"
     id="path5943"
     d="m 88.500002,342.4 0,-9 m 0,-316.7 0,9" />
  <path
     style="color:#000000;fill:none;stroke:currentColor;stroke-width:1;stroke-linecap:butt;stroke-linejoin:miter"
     id="path5949"
     d="m 118,342.4 0,-4.5 m 0,-321.2 0,4.5 m 39,321.2 0,-4.5 m 0,-321.2 0,4.5 m 20,321.2 0,-4.5 m 0,-321.2 0,4.5 m 9.5,321.2 0,-9 m 0,-316.7 0,9" />
  <path
     style="color:#000000;fill:none;stroke:currentColor;stroke-width:1;stroke-linecap:butt;stroke-linejoin:miter"
     id="path5955"
     d="m 215.9,342.4 0,-4.5 m 0,-321.2 0,4.5 m 39,321.2 0,-4.5 m 0,-321.2 0,4.5 m 20,321.2 0,-4.5 m 0,-321.2 0,4.5 m 9.5,321.2 0,-9 m 0,-316.7 0,9" />
  <path
     style="color:#000000;fill:none;stroke:currentColor;stroke-width:1;stroke-linecap:butt;stroke-linejoin:miter"
     id="path5961"
     d="m 313.9,342.4 0,-4.5 m 0,-321.2 0,4.5 m 39,321.2 0,-4.5 m 0,-321.2 0,4.5 m 20,321.2 0,-4.5 m 0,-321.2 0,4.5 m 9.5,321.2 0,-9 m 0,-316.7 0,9" />
  <path
     style="color:#000000;fill:none;stroke:currentColor;stroke-width:1;stroke-linecap:butt;stroke-linejoin:miter"
     id="path5967"
     d="m 411.8,342.4 0,-4.5 m 0,-321.2 0,4.5 m 39,321.2 0,-4.5 m 0,-321.2 0,4.5 m 20,321.2 0,-4.5 m 0,-321.2 0,4.5 m 9.5,321.2 0,-9 m 0,-316.7 0,9" />
  <path
     style="color:#000000;fill:none;stroke:currentColor;stroke-width:1;stroke-linecap:butt;stroke-linejoin:miter"
     id="path5973"
     d="m 509.8,342.4 0,-4.5 m 0,-321.2 0,4.5 m 39,321.2 0,-4.5 m 0,-321.2 0,4.5 m 20,321.2 0,-4.5 m 0,-321.2 0,4.5 m 9.5,321.2 0,-9 m 0,-316.7 0,9" />
  <path
     style="color:#000000;fill:none;stroke:currentColor;stroke-width:1;stroke-linecap:butt;stroke-linejoin:miter"
     id="path5979"
     d="m 88.500002,16.7 0,325.7 490.599998,0 0,-325.7 -490.599998,0 z" />
  <g
     id="g5989"
     style="font-size:15px;text-anchor:middle;color:#000000;fill:#000000;stroke:none;font-family:Times New Roman"
     transform="translate(528.9,39.2)">
    <text
       id="text5991">gamma</text>
  </g>
  <path
     style="color:#000000;fill:none;stroke:currentColor;stroke-width:1;stroke-linecap:butt;stroke-linejoin:miter"
     id="path5993"
     d="m 487.1,133.7 0,-108 83.7,0 0,108 -83.7,0 z" />
  <path
     style="color:#000000;fill:none;stroke:currentColor;stroke-width:1;stroke-linecap:butt;stroke-linejoin:miter"
     id="path5995"
     d="m 487.1,43.7 83.7,0" />
  <a
     xlink:title="Plot #1"
     id="a5997">
    <g
       style="color:#ff0000;fill:none;stroke:currentColor;stroke-width:1;stroke-linecap:butt;stroke-linejoin:miter"
       id="g5999">
      <g
         transform="translate(512,57.2)"
         style="font-size:15px;text-anchor:end;fill:#000000;stroke:none;font-family:Times New Roman"
         id="g6001">
        <text
           id="text6003">0.2</text>
      </g>
      <path
         d="m 520.3,52.7 42.2,0 m -474,172.1 4.1,-0.1 4,-0.5 4.1,0.6 4,0 4.1,-0.3 4,0.2 4.1,0.1 4,-0.2 4.1,0.3 4,-0.3 4.1,0 4.1,0 4,0.2 4.1,0 4,-0.1 4.1,0.2 4,-0.2 4.1,-8.5 4,11.2 4.1,-2.6 4,0 4.1,0 4.1,0.6 4,-0.6 4.1,0 4,0 4.1,0 4,-0.2 4.1,-7.4 4,0.1 4.1,1.4 4,6.1 4.1,-0.1 4.1,-6.3 4,6.3 4.1,0.1 4,-5.6 4.1,0.2 4,5.4 4.1,0 4,0 4.1,0 4,0 4.1,-0.2 4.1,0.3 4,0 4.1,-1.7 4,1.7 4.1,0.1 4,-0.1 4.1,0.1 4,0 4.1,1 4,-0.3 4.1,1.7 4.1,-0.4 4,0.2 4.1,0.9 4,0 4.1,2.8 4,-0.2 4.1,1.5 4,-1.1 4.1,-0.1 4,-8.5 4.1,1.5 4.1,8.1 4,-10.4 4.1,15.4 4,13.6 4.1,-14.9 4,0.8 4.1,-6.2 4,-0.3 4.1,-0.3 4,6.6 4.1,2.1 4.1,-2.8 4,-2.6 4.1,-0.8 4,13 4.1,18.6 4,0.4 4.1,-2.2 4,-1.9 4.1,-0.7 4,-1.4 4.1,-12.2 4.1,9.5 4,-0.5 4.1,-8.2 4,1.7 4.1,-6.6 4,4.5 4.1,-4.9 4,-0.8 4.1,3.5 4,-0.5 4.1,-5.1 4.1,-0.8 4,3.7 4.1,-1 4,-3.2 4.1,-0.2 4,0.1 4.1,1.3 4,-0.4 4.1,0 4,-1 4.1,1.8 4.1,-3.6 4,-2.1 4.1,3.1 4,-1.6 4.1,-1 4,0 4.1,3.2 4,-3.7 4.1,1.3 4,0.9 4.1,0.3"
         id="path6005"
         style="stroke-width:2.5;stroke-miterlimit:4;stroke-dasharray:none" />
    </g>
  </a>
  <a
     xlink:title="Plot #2"
     id="a6007">
    <g
       style="color:#008000;fill:none;stroke:currentColor;stroke-width:1;stroke-linecap:butt;stroke-linejoin:miter"
       id="g6009">
      <g
         transform="translate(512,75.2)"
         style="font-size:15px;text-anchor:end;fill:#000000;stroke:none;font-family:Times New Roman"
         id="g6011">
        <text
           id="text6013">0.4</text>
      </g>
      <path
         d="m 520.3,70.7 42.2,0 m -474,260.7 4.1,-4.1 4,11.7 4.1,-11.9 4,-0.1 4.1,0.4 4,-2.4 4.1,-0.9 4,3 4.1,0.3 4,-0.1 4.1,-2.4 4.1,2.1 4,0 4.1,0.3 4,-0.2 4.1,-7.2 4,1.9 4.1,3.6 4,2.2 4.1,-0.3 4,-3.4 4.1,3.1 4.1,-1.7 4,2.3 4.1,-0.3 4,-0.3 4.1,0.2 4,-19.5 4.1,19.4 4,-2.3 4.1,2.7 4,-2.9 4.1,2.8 4.1,-0.4 4,-5 4.1,5.2 4,-7 4.1,7 4,-0.3 4.1,0.1 4,-0.1 4.1,0.4 4,-0.2 4.1,-0.1 4.1,-0.5 4,0.4 4.1,-0.5 4,0.5 4.1,-0.2 4,0.1 4.1,-0.1 4,-1.9 4.1,1.5 4,-0.9 4.1,-2.5 4.1,3.6 4,0.3 4.1,0 4,0.3 4.1,-0.1 4,0.4 4.1,8.5 4,0.2 4.1,-0.2 4,0.3 4.1,0.2 4.1,0 4,0 4.1,0.2 4,0 4.1,0 4,0 4.1,0 4,0.2 4.1,0.1 4,0.2 4.1,-10.3 4.1,10.6 4,0.2 4.1,0.2 4,0 4.1,0 4,0 4.1,-11 4,0 4.1,12.2 4,-12.2 4.1,11.8 4.1,-11.8 4,0 4.1,11.2 4,-11.2 4.1,11 4,-11 4.1,0 4,0 4.1,0 4,10.6 4.1,-10.6 4.1,0 4,0 4.1,10.1 4,-10.1 4.1,2.7 4,-2.7 4.1,10.1 4,-0.2 4.1,-9.9 4,9.9 4.1,-0.1 4.1,-7.3 4,0 4.1,0 4,-2.5 4.1,9.7 4,0 4.1,-4.9 4,4.6 4.1,-9.4 4,2.5 4.1,7.1"
         id="path6015"
         style="stroke-width:2.5;stroke-miterlimit:4;stroke-dasharray:none" />
    </g>
  </a>
  <a
     xlink:title="Plot #3"
     id="a6017">
    <g
       style="color:#0000ff;fill:none;stroke:currentColor;stroke-width:1;stroke-linecap:butt;stroke-linejoin:miter"
       id="g6019">
      <g
         transform="translate(512,93.2)"
         style="font-size:15px;text-anchor:end;fill:#000000;stroke:none;font-family:Times New Roman"
         id="g6021">
        <text
           id="text6023">0.6</text>
      </g>
      <path
         d="m 520.3,88.7 42.2,0 m -474,219.9 4.1,-2.4 4,2.8 4.1,-0.8 4,0.7 4.1,-0.7 4,-0.4 4.1,2.7 4,-1.6 4.1,-0.4 4,1 4.1,-1.7 4.1,0.9 4,-0.5 4.1,0 4,0.3 4.1,-1.5 4,1.2 4.1,0.7 4,-1.2 4.1,1.9 4,-1.1 4.1,-0.9 4.1,0.6 4,0.3 4.1,-0.2 4,0 4.1,-0.2 4,0.3 4.1,-0.2 4,0.4 4.1,-1.5 4,1.5 4.1,-0.3 4.1,0.3 4,-0.3 4.1,-1 4,1.1 4.1,0 4,-1.5 4.1,-1.1 4,1.9 4.1,0 4,0.1 4.1,-1 4.1,1 4,-0.1 4.1,0 4,-2.3 4.1,-1 4,-1.1 4.1,-0.9 4,-1.3 4.1,-0.9 4,-1.3 4.1,-1.2 4.1,0.4 4,7.2 4.1,1.5 4,1.5 4.1,1.8 4,1.9 4.1,1.6 4,1.8 4.1,1.9 4.35355,-0.77487 3.74645,4.27487 4.1,1.6 4,1.5 4.1,1.4 4,1.4 4.1,6 4,-14.3 4.1,-2 4,15.1 4.1,0.8 4,1.4 4.1,1.2 4.1,0.8 3.29289,-6.62792 4.80711,3.42792 4,-0.1 4.1,0 4,-24.6 4.1,25.1 4,-17.67538 4.1,17.67538 4,-0.5 4.1,-14.70051 4.1,-2.47487 4,3.88908 4.1,-1.41421 4,0 4.1,2.47487 4,-2.47487 4.1,0 4,0 4.1,0 4,-2.82843 4.1,2.82843 4.1,0 4,3.18198 4.1,-0.35355 4,-2.82843 4.1,0 4,2.47487 4.1,1.41422 4,-2.12132 3.74645,-3.18198 4.35355,-0.70711 4.1,4.24264 4.1,11.67919 4,0.2 4.1,-0.2 4,0.2 4.1,0.9 4,-1 4.1,0.3 4,-0.1 4.1,-0.7 4,0.2 4.1,-0.1"
         id="path6025"
         style="stroke-width:2.5;stroke-miterlimit:4;stroke-dasharray:none"
         sodipodi:nodetypes="cccccccccccccccccccccccccccccccccccccccccccccccccccccccccccccccccccccccccccccccccccccccccccccccccccccccccccccccccccccccccccc" />
    </g>
  </a>
  <a
     xlink:title="Plot #4"
     id="a6027">
    <g
       style="color:#00ffff;fill:none;stroke:currentColor;stroke-width:1;stroke-linecap:butt;stroke-linejoin:miter"
       id="g6029">
      <g
         transform="translate(512,111.2)"
         style="font-size:15px;text-anchor:end;fill:#000000;stroke:none;font-family:Times New Roman"
         id="g6031">
        <text
           id="text6033">0.8</text>
      </g>
      <path
         d="m 520.3,106.7 42.2,0 m -474,137.6 4.1,1.4 4,-0.5 4.1,0 4,0.5 4.1,-11.4 4,11.3 4.1,-0.9 4,0.7 4.1,-0.1 4,-0.4 4.1,0.7 4.1,-0.2 4,-0.5 4.1,0.6 4,-0.1 4.1,-0.2 4,0.4 4.1,-0.3 4,0.2 4.1,0 4,-0.2 4.1,0.5 4.1,-1 4,0 4.1,0.7 4,-1.5 4.1,1.3 4,0.2 4.1,-1.3 4,0.7 4.1,-0.6 4,0.8 4.1,0.3 4.1,-3.1 4,2.3 4.1,0.5 4,-1.2 4.1,1.1 4,0.1 4.1,0 4,-0.2 4.1,0 4,-0.4 4.1,-0.4 4.1,0.4 4,-2.4 4.1,-1.1 4,-0.8 4.1,-0.1 4,-0.2 4.1,0.3 4,-0.3 4.1,0.6 4,1 4.1,11.6 4.1,13 4,2.7 4.1,3.2 4,3.1 4.1,3.5 4,4.1 4.1,4.6 4,4 4.1,4.7 4,4.3 4.1,4.6 4.1,5.4 4,5 4.1,3.9 4,7.3 4.1,-10.7868 4,13.8868 4.1,0.4 4,-3.7 3.74645,-37.55938 4.35355,-3.88909 3.39289,8.48528 4.80711,0.70711 3.64645,-5.3033 4.1,6.36396 4.35355,2.47488 3.39289,3.53553 4,-2.12132 3.74645,3.18198 4.35355,2.47487 3.03934,-3.53553 4.70711,-3.53553 4.45355,-2.47488 4.45356,5.3033 L 453.4,311.2 l 4.1,-0.5 4,0.4 4.1,1.2 4,-0.5 4.1,-0.1 4,-3 4.1,2.1 4,-0.5 4.1,1.7 4.1,0.1 4,1.2 4.1,-2.4 4,1.1 4.1,1.5 4,-1 4.1,-3 4,0.5 4.1,-19.23705 4,18.53705 4.1,1 4.1,1.1 4,-1.1 4.1,0.8 4,-1.3 4.1,0.9 4,-6.3 4.1,5.8 4,-0.1 4.1,0.4 4,3.5 4.1,0"
         id="path6035"
         style="stroke-width:2.5;stroke-miterlimit:4;stroke-dasharray:none"
         sodipodi:nodetypes="cccccccccccccccccccccccccccccccccccccccccccccccccccccccccccccccccccccccccccccccccccccccccccccccccccccccccccccccccccccccccccc" />
    </g>
  </a>
  <a
     xlink:title="Plot #5"
     id="a6037">
    <g
       style="color:#157545;fill:none;stroke:currentColor;stroke-width:1;stroke-linecap:butt;stroke-linejoin:miter"
       id="g6039">
      <g
         transform="translate(512,129.2)"
         style="font-size:15px;text-anchor:end;fill:#000000;stroke:none;font-family:Times New Roman"
         id="g6041">
        <text
           id="text6043">1.0</text>
      </g>
      <path
         d="m 520.3,124.7 42.2,0 m -474,41.2 4.1,-1.2 4,1.2 4.1,-1.2 4,0.5 4.1,0.5 4,0 4.1,0.3 4,-3.2 4.1,3.1 4,0.2 4.1,-0.4 4.1,0.4 4,-0.4 4.1,0.2 4,-2 4.1,-1.3 4,3.3 4.1,0.1 4,0 4.1,0 4,-0.7 4.1,0.5 4.1,0.2 4,0 4.1,-0.1 4,0 4.1,-0.8 4,0.9 4.1,0 4,-0.1 4.1,0.1 4,-0.1 4.1,-0.2 4.1,-0.3 4,0.3 4.1,0.2 4,0 4.1,-0.1 4,0 4.1,-0.1 4,0 4.1,-0.9 4,-0.2 4.1,-1.1 4.1,-0.8 4,-0.5 4.1,0.1 4,0 4.1,-0.2 4,1.5 4.1,1.1 4,-0.3 4.1,3.5 4,8.2 4.1,26.4 4.1,2.9 4,4.7 4.1,3.4 4,4.8 4.1,5.5 4,6.5 4.1,5.6 4,6.2 4.1,6.2 4,8.7 4.1,6.3 4.1,7.9 4,9.1 4.1,10.6 4,1.5 3.39289,-14.61623 4.70711,7.91623 4.1,1.7 4,-44 4.1,2.6 4,1.7 4.1,3.8 4.1,3.1 4,5.5 4.1,-0.1 4,1.3 4.1,2.9 4,-0.8 4.1,5.2 4,-5.3 4.1,5.5 4,-3.3 4.1,5.5 4.1,2.3 4,3.5 4.1,0.6 4,-0.4 4.1,0.2 4,1.9 4.1,-1.9 4,0.2 4.1,2.8 4,-4.3 4.1,-7.5 4.1,9.7 4,-5 4.1,-0.7 4,4.7 4.1,1.4 4,0.4 4.1,-8.8 4,8.2 4.1,-1.5 4,3.3 4.1,-15.4 4.1,10 4,3.3 4.1,0.4 4,-4.8 4.1,3.8 4,-1.1 4.1,-1.9 4,-2.3 4.1,-0.5 4,-1.5 4.1,-10"
         id="path6045"
         style="stroke:#64c8fa;stroke-width:2.5;stroke-miterlimit:4;stroke-opacity:1;stroke-dasharray:none"
         sodipodi:nodetypes="cccccccccccccccccccccccccccccccccccccccccccccccccccccccccccccccccccccccccccccccccccccccccccccccccccccccccccccccccccccccccccc" />
    </g>
  </a>
  <g
     style="color:#000000;fill:none;stroke:currentColor;stroke-width:1;stroke-linecap:butt;stroke-linejoin:miter"
     id="g6047">
    <path
       d="m 88.5,16.7 0,325.7 490.6,0 0,-325.7 -490.6,0 z"
       id="path6049" />
  </g>
</svg>
